<svg width="26" height="22" viewBox="0 0 26 22" fill="none" xmlns="http://www.w3.org/2000/svg">
<path d="M21.3646 8.25H16.3577L11.7535 0.346328C11.6921 0.241101 11.6034 0.153652 11.4965 0.0928351C11.3896 0.0320182 11.2681 -7.60233e-06 11.1445 1.35365e-09L8.27508 1.35365e-09C7.80939 1.35365e-09 7.47338 0.436992 7.6013 0.876133L9.74923 8.25H5.2431L3.35057 5.775C3.21827 5.60184 3.01018 5.5 2.78983 5.5H1.03793C0.581881 5.5 0.247185 5.92023 0.35802 6.35422L1.73842 11L0.35802 15.6458C0.247185 16.0798 0.581881 16.5 1.03793 16.5H2.78983C3.01062 16.5 3.21827 16.3982 3.35057 16.225L5.2431 13.75H9.74923L7.6013 21.1234C7.47338 21.5626 7.80939 22 8.27508 22H11.1445C11.396 22 11.6282 21.8677 11.753 21.6537L16.3577 13.75H21.3646C22.9132 13.75 25.5702 12.5189 25.5702 11C25.5702 9.48105 22.9132 8.25 21.3646 8.25Z" fill="#2B518B"/>
</svg>
