<svg width="14" height="17" viewBox="0 0 14 17" fill="none" xmlns="http://www.w3.org/2000/svg">
<path d="M3.56835 3.91847C3.56835 1.9459 5.11486 0.347046 7.02562 0.347046C8.93637 0.347046 10.4829 1.9459 10.4829 3.91847V5.44909H12.4585C13.2765 5.44909 13.9401 6.13467 13.9401 6.9797V13.6124C13.9401 15.3024 12.6128 16.6736 10.9768 16.6736H3.07446C1.43781 16.6736 0.111084 15.3024 0.111084 13.6124V6.9797C0.111084 6.13467 0.774447 5.44909 1.59277 5.44909H3.56835V3.91847ZM5.05004 5.44909H9.0012V3.91847C9.0012 2.79124 8.11527 1.87766 7.02562 1.87766C5.93596 1.87766 5.05004 2.79124 5.05004 3.91847V5.44909ZM4.30919 8.51031C4.71974 8.51031 5.05004 8.16911 5.05004 7.74501C5.05004 7.3209 4.71974 6.9797 4.30919 6.9797C3.89864 6.9797 3.56835 7.3209 3.56835 7.74501C3.56835 8.16911 3.89864 8.51031 4.30919 8.51031ZM9.74204 6.9797C9.33149 6.9797 9.0012 7.3209 9.0012 7.74501C9.0012 8.16911 9.33149 8.51031 9.74204 8.51031C10.1526 8.51031 10.4829 8.16911 10.4829 7.74501C10.4829 7.3209 10.1526 6.9797 9.74204 6.9797Z" fill="#2B518B"/>
</svg>
