<svg width="48" height="48" viewBox="0 0 48 48" fill="none" xmlns="http://www.w3.org/2000/svg">
<g clip-path="url(#clip0_106_379)">
<path d="M14.5256 27.5781H37.5256C37.5256 27.5781 44.0255 28.0782 44.0256 22.0782C44.0256 15.5017 37.5256 17.5782 37.5256 17.5782C37.5256 17.5782 39.7756 14.0781 36.0256 11.5781C32.2756 9.07814 29.5256 14.0782 29.5256 14.0782C29.5256 14.0782 27.295 8.59203 23.0256 8.07814C18.7562 7.56426 15.1124 9.66313 14.5256 12.0781C13.8834 14.7209 14.5256 18.0781 14.5256 18.0781C14.5256 18.0781 7.52557 16.0781 8.02557 23.0781C8.38272 28.0781 14.5256 27.5781 14.5256 27.5781Z" fill="white" stroke="#DDE9F0" stroke-width="2"/>
<path d="M31.5 33.5781H8.5C8.5 33.5781 2.00003 34.0782 2 28.0782C1.99997 21.5017 8.5 23.5782 8.5 23.5782C8.5 23.5782 6.25 20.0781 10 17.5781C13.75 15.0781 16.5 20.0782 16.5 20.0782C16.5 20.0782 18.7306 14.592 23 14.0781C27.2694 13.5643 30.9132 15.6631 31.5 18.0781C32.1422 20.7209 31.5 24.0781 31.5 24.0781C31.5 24.0781 38.5 22.0781 38 29.0781C37.6429 34.0781 31.5 33.5781 31.5 33.5781Z" fill="white" stroke="#DDE9F0" stroke-width="2"/>
<path d="M41.5 43.5781H18.5C18.5 43.5781 12 44.0782 12 38.0782C12 31.5017 18.5 33.5782 18.5 33.5782C18.5 33.5782 16.25 30.0781 20 27.5781C23.75 25.0781 26.5 30.0782 26.5 30.0782C26.5 30.0782 28.7306 24.592 33 24.0781C37.2694 23.5643 40.9132 25.6631 41.5 28.0781C42.1422 30.7209 41.5 34.0781 41.5 34.0781C41.5 34.0781 48.5 32.0781 48 39.0781C47.6429 44.0781 41.5 43.5781 41.5 43.5781Z" fill="white" stroke="#DDE9F0" stroke-width="2"/>
</g>
<defs>
<clipPath id="clip0_106_379">
<rect width="48" height="48" fill="white"/>
</clipPath>
</defs>
</svg>
