<svg width="48" height="48" viewBox="0 0 32 32" fill="none" xmlns="http://www.w3.org/2000/svg">
<path d="M13.4593 8.01125C13.4593 7.3355 13.3565 6.68051 13.1668 6.07309L16.4005 8.86976C16.3878 10.3869 16.2708 11.4 15.9069 12.2644C15.5472 13.1186 14.9282 13.8686 13.8239 14.8159L10.2745 13.228C12.1574 12.5572 13.4593 10.4156 13.4593 8.01125Z" fill="#990000"/>
<path d="M5.42227 8.01124C5.42227 5.38505 7.11461 3.42229 9.01851 3.42229C9.76189 3.42229 10.473 3.72151 11.0637 4.24261L11.058 4.24925L11.2278 4.39607C11.7524 4.91621 12.167 5.61994 12.4016 6.44606C11.8141 7.13478 11.0564 8.18976 10.6547 9.4206C10.3021 10.5012 10.3097 11.473 10.4312 12.2269C9.99175 12.4682 9.51225 12.6002 9.01851 12.6002C8.96593 12.6002 8.91351 12.5987 8.86129 12.5957L8.80054 12.5686V12.5916C6.98733 12.4487 5.42227 10.5367 5.42227 8.01124Z" fill="#990000"/>
<path d="M10.6345 13.0787C10.5171 13.1344 10.397 13.1843 10.2745 13.228L10.7681 13.4488C10.726 13.3449 10.68 13.2208 10.6345 13.0787Z" fill="#990000"/>
<path d="M9.22283 28V13.2201L25.2696 20.3989C25.2696 20.3989 26.5364 21.1027 27.381 19.9766C28.2256 18.8505 26.9587 17.4429 26.9587 17.4429L11.3342 3.92985M16.8239 8.57497C16.8239 11.9532 16.4016 13.2201 13.8679 15.3315M19.3576 10.6864C18.9353 13.6424 18.5131 14.4869 16.4016 16.5983M21.8913 13.2201C21.469 15.7538 21.0468 16.1761 19.7799 17.8652M24.0027 14.9092C23.5805 16.5984 23.1582 17.4429 21.8913 18.7098M13.0371 8.01124C13.0371 10.7789 11.2379 13.0225 9.01853 13.0225C6.79916 13.0225 5 10.7789 5 8.01124C5 5.24361 6.79916 3 9.01853 3C11.2379 3 13.0371 5.24361 13.0371 8.01124Z" stroke="#2B518B"/>
<path d="M22.4944 18.6948L25.4587 20.0209L25.4726 20.0286L25.4735 20.0291L25.4772 20.031C25.4825 20.0337 25.4919 20.0385 25.5052 20.0447C25.5318 20.0572 25.5732 20.0754 25.6261 20.0948C25.7334 20.1341 25.8802 20.1756 26.0436 20.1892C26.3554 20.2152 26.7269 20.1449 27.0432 19.7232C27.3332 19.3366 27.2837 18.8861 27.0984 18.4538C27.0078 18.2425 26.8927 18.0575 26.7985 17.924C26.7518 17.8578 26.7114 17.806 26.6835 17.7715C26.6738 17.7596 26.6656 17.7498 26.6593 17.7423L24.2404 15.6502C24.2402 15.6508 24.2401 15.6513 24.2399 15.6519C24.0731 16.2206 23.8865 16.708 23.6345 17.17C23.3561 17.6804 23.0057 18.1458 22.5353 18.6511C22.5218 18.6656 22.5082 18.6802 22.4944 18.6948Z" fill="#990000"/>
<path d="M17.2409 16.3445L19.6011 17.4004C19.6279 17.3647 19.6543 17.3297 19.6802 17.2954C20.1882 16.6214 20.5177 16.1844 20.7746 15.6705C21.0563 15.1071 21.256 14.4365 21.4589 13.2447L19.6317 11.6644C19.4556 12.6712 19.245 13.4395 18.8908 14.1479C18.5213 14.8868 18.0061 15.5398 17.2572 16.3274L17.2409 16.3445Z" fill="#990000"/>
</svg>
