<svg width="46" height="46" version="1.1" viewBox="0 0 48 48" xmlns="http://www.w3.org/2000/svg">
 <g transform="translate(-1.1683 -.1374)" fill="none">
  <ellipse cx="25.168" cy="24.137" rx="23.442" ry="23.442" stroke="#64758e" stroke-width="1.1161"/>
  <g transform="translate(11.435 9.8696)">
   <path d="m13.733 14.269c4.2815 0 7.7516-3.3872 7.7516-7.5652 0-4.178-3.4701-7.5652-7.7516-7.5652-4.2815 0-7.7515 3.3872-7.7515 7.5652 0 4.178 3.47 7.5652 7.7515 7.5652zm3.0704 2.837h-6.1407c-5.7949 0-10.495 4.5864-10.495 10.243 0 1.1312 0.93988 2.0491 2.099 2.0491h22.934c1.1591 0.0018 2.0977-0.9143 2.0977-2.0491 0-5.6562-4.6993-10.243-10.495-10.243z" fill="#64758e"/>
  </g>
 </g>
</svg>
