<svg class="logo"  viewBox="0 0 197 40" width="197" height="40"  fill="#2B518B" version="1.1"  xmlns="http://www.w3.org/2000/svg">
 <path d="m1.8486 24.636c0.42058 0.198 0.84115 0.3959 1.2617 0.5938 0.43294 0.1855 0.90918 0.3711 1.4287 0.5566 0.08659-0.235 0.12989-0.6061 0.12989-1.1132 0-0.3464-0.00619-0.6124-0.01856-0.7979-0.04948-0.9525-0.14844-2.3997-0.29687-4.3418-0.14844-2.0286-0.25977-3.68-0.33399-4.9541s-0.11133-2.4801-0.11133-3.6182c0-0.3463 0.01237-0.8287 0.03711-1.4472l0.05567-0.87207-2.7646-0.38965c-0.16081-0.45768-0.28451-0.95866-0.3711-1.5029-0.086588-0.55664-0.12988-1.0947-0.12988-1.6142 0-0.39584 0.030924-0.82878 0.092773-1.2988 1.4844-0.56901 3.3522-0.97722 5.6035-1.2246 2.2513-0.2474 4.5769-0.3711 6.9766-0.3711 2.4245 0 4.0944 0.10515 5.0098 0.31543l0.0185-0.01855c0.668 0.39583 1.2494 0.81022 1.7442 1.2432 0.5071 0.42058 0.9895 0.93392 1.4472 1.54 0 0.85352-0.1051 1.8369-0.3154 2.9502-0.1979 1.1009-0.4577 2.1152-0.7793 3.043-0.3092 0.9277-0.6309 1.5833-0.9648 1.9668-0.2969 0.136-0.6185 0.2412-0.9649 0.3154-0.3463 0.0619-0.7669 0.0928-1.2617 0.0928-0.5195 0-0.9154-0.0371-1.1875-0.1114-0.2598-0.0742-0.5443-0.1979-0.8535-0.371l-0.6309-4.6573c-0.4082-0.08659-0.903-0.12988-1.4844-0.12988-0.5195 0-1.0699 0.03092-1.6513 0.09277-0.0371 0.58138-0.0804 1.5401-0.1299 2.876-0.0247 0.9772-0.0619 1.9235-0.1113 2.8389l-0.1485 3.2285c3.0183-0.3711 5.5355-0.7608 7.5518-1.169 0.4948 0.7299 0.7422 1.67 0.7422 2.8203 0 0.7546-0.099 1.4782-0.2969 2.1709-0.1979 0.6928-0.4144 1.169-0.6494 1.4288-0.3835 0.0618-0.8906 0.0927-1.5215 0.0927-0.9401 0-1.9482-0.0866-3.0244-0.2597-1.0638-0.1856-2.0781-0.4392-3.043-0.7608-0.0742 1.1009-0.167 2.1647-0.2783 3.1914-0.1113 0.9772-0.266 1.8308-0.4639 2.5606-0.18551 0.7174-0.4762 1.3421-0.87204 1.874-0.50716 0.668-1.1566 1.1628-1.9482 1.4844-0.7793 0.3216-1.6204 0.4824-2.5234 0.4824-0.82877 0-1.6452-0.1917-2.4492-0.5752-0.79166-0.3835-1.4411-1.0329-1.9482-1.9482 0.01237-0.8041 0.11133-1.5277 0.29688-2.1709 0.19792-0.6433 0.57519-1.3236 1.1318-2.0411zm19.464-17.905c-0.1855-0.75456-0.3092-1.3792-0.3711-1.874-0.0618-0.50717-0.0866-1.0886-0.0742-1.7442 0.2598-0.33398 0.6618-0.66796 1.206-1.002 0.5567-0.34635 1.1999-0.63704 1.9297-0.87207 0.7422-0.23502 1.5091-0.35254 2.3008-0.35254 1.5462 0 2.7337 0.38965 3.5625 1.1689 0.8288 0.77929 1.2432 1.9297 1.2432 3.4512 0 1.0885-0.0928 2.8389-0.2783 5.2509-0.1856 2.4121-0.4515 4.9789-0.7979 7.7002-0.3464 2.709-0.7422 5.0778-1.1875 7.1065l0.0371 0.0371 2.7461-1.1504c0.9649 0.8288 1.5277 1.9297 1.6885 3.3027 0 0.0866-0.2783 0.4453-0.835 1.0762-0.5566 0.6185-1.2926 1.1999-2.208 1.7441-0.903 0.5319-1.942 0.7979-3.1172 0.7979-1.2246 0-2.2204-0.3402-2.9873-1.0205-0.7545-0.6804-1.1133-1.8431-1.0761-3.4883l0.0371-3.3398c0.0123-3.1667 0.0433-6.0179 0.0927-8.5537 0.0619-2.5359 0.1856-5.1521 0.3711-7.8487l-2.2822-0.38965zm14.361-2.3564c0-1.0885 0.3526-1.973 1.0576-2.6533 0.7175-0.68034 1.8555-1.0205 3.4141-1.0205s2.6904 0.34016 3.3955 1.0205c0.7175 0.68034 1.0762 1.5648 1.0762 2.6533 0 0.61849-0.2165 1.1875-0.6494 1.707-0.4206 0.51954-0.9772 0.93392-1.6699 1.2432-0.6928 0.29687-1.4102 0.44531-2.1524 0.44531-0.804 0-1.5524-0.17318-2.2451-0.51953-0.6803-0.35872-1.2246-0.80404-1.6328-1.3359-0.3959-0.5319-0.5938-1.0452-0.5938-1.54zm-0.9092 10.613c-0.1608-0.6061-0.2721-1.1566-0.3339-1.6514-0.0619-0.5071-0.0928-1.0328-0.0928-1.5771l0.0185-0.5195c0.2598-0.334 0.6618-0.668 1.2061-1.002 0.5566-0.34635 1.1999-0.63704 1.9297-0.87207 0.7422-0.23502 1.5091-0.35253 2.3008-0.35253 1.7317 0 2.9625 0.38964 3.6924 1.1689 0.7298 0.7793 1.0947 1.9916 1.0947 3.6368 0 0.9895-0.1423 2.2822-0.4268 3.8779-0.2721 1.5957-0.6061 3.1481-1.0019 4.6572-0.3835 1.4968-0.7175 2.5667-1.002 3.21l0.0371 0.0371 2.7461-1.002c0.4948 0.4206 0.8659 0.8845 1.1133 1.3916 0.2598 0.5072 0.4268 1.0948 0.501 1.7627 0 0.0866-0.2722 0.4453-0.8164 1.0762-0.5443 0.6185-1.2679 1.1999-2.1709 1.7441-0.8907 0.5319-1.9235 0.7979-3.0987 0.7979-1.1875 0-2.1523-0.3216-2.8945-0.9649-0.7298-0.6432-1.0947-1.7441-1.0947-3.3027 0-1.8183 0.0495-3.748 0.1484-5.789 0.099-2.0411 0.2536-4.0202 0.4639-5.9375l-2.3194-0.3897zm24.214 18.963c0.8288 0 1.5462-0.0928 2.1524-0.2783 0.1855-0.1856 0.3154-0.402 0.3896-0.6494 0.0742-0.2351 0.1113-0.4577 0.1113-0.668 0-0.2227-0.0185-0.3897-0.0556-0.501-0.0371-0.0989-0.099-0.1917-0.1856-0.2783-0.5195-0.0866-1.1318-0.1484-1.8369-0.1856-0.6927-0.0247-1.1071-0.0432-1.2432-0.0556-1.7194-0.0742-3.1171-0.1979-4.1933-0.3711-1.0762-0.1856-1.9977-0.5814-2.7647-1.1875-0.7669-0.6185-1.1504-1.5462-1.1504-2.7832 0-0.668 0.2165-1.2927 0.6495-1.874 0.4329-0.5938 0.9957-1.1133 1.6884-1.5586-1.4101-0.5814-2.542-1.4535-3.3955-2.6162-0.8411-1.1752-1.2617-2.6905-1.2617-4.5459 0-1.8431 0.4701-3.3213 1.4102-4.4346 0.9524-1.1257 2.1214-1.9173 3.5068-2.375 1.3854-0.45768 2.7956-0.68652 4.2305-0.68652 0.903 0 1.7874 0.08659 2.6533 0.25976 0.8659 0.17318 1.6699 0.42058 2.4121 0.74219l-0.7978-4.7129c0.7545-0.45768 1.6946-0.68652 2.8203-0.68652 0.8164 0 1.5771 0.13606 2.2822 0.4082 0.7051 0.27213 1.2432 0.66178 1.6142 1.1689 0.0248 0.1237 0.0372 0.32162 0.0372 0.59375 0 1.0143-0.1856 2.1462-0.5567 3.3955-0.3587 1.237-0.9834 2.2328-1.874 2.9873 0.4453 0.8906 0.668 1.8493 0.668 2.876 0 1.5091-0.2907 2.9007-0.8721 4.1748-0.569 1.2741-1.5215 2.3131-2.8574 3.1172-1.336 0.7917-3.0739 1.1875-5.2139 1.1875-0.6185 0-1.2617-0.0371-1.9297-0.1113-0.0371 0.6184 0.1113 1.2369 0.4453 1.8554 1.6699-0.3216 3.0183-0.4886 4.0449-0.501l1.2618-0.0185c1.707 0 2.9996 0.1051 3.8779 0.3154 0.9648 0.2351 1.6823 0.767 2.1523 1.5957 0.4825 0.8288 0.7237 1.8369 0.7237 3.0244 0 1.8555-0.569 3.4141-1.7071 4.6758-1.1256 1.2741-2.5914 2.2204-4.3974 2.8389-1.7936 0.6185-3.6986 0.9277-5.7149 0.9277-1.8678 0-3.5315-0.3154-4.9912-0.9463-1.4596-0.6308-2.3812-1.7874-2.7646-3.4697 0.4082-1.4225 1.1875-2.4987 2.3379-3.2285 1.5462 0.9277 3.0244 1.5895 4.4345 1.9853 1.4226 0.3959 2.709 0.5938 3.8594 0.5938zm-1.1318-14.12c0.8906 0 1.4101-0.0557 1.5586-0.167 0.334-0.668 0.5009-1.3545 0.5009-2.0596 0-0.7298-0.1669-1.4163-0.5009-2.0596-0.1608-0.136-0.5196-0.2412-1.0762-0.3154-0.5443-0.0742-1.138-0.1113-1.7812-0.1113-0.8041 0-1.3422 0.0495-1.6143 0.1484-0.3835 0.6804-0.5752 1.3669-0.5752 2.0596 0 0.7051 0.1794 1.373 0.5381 2.0039 0.2721 0.1732 0.6803 0.3031 1.2246 0.3897 0.5566 0.0742 1.1318 0.1113 1.7256 0.1113zm12.914-0.8906c0-5.7396 0.1114-9.6856 0.334-11.838l-2.0967-0.37109c-0.2968-1.138-0.4453-2.3626-0.4453-3.6738 0.1856-0.23503 0.5319-0.52572 1.0391-0.87207s1.0947-0.64941 1.7627-0.90918c0.6803-0.25977 1.3545-0.38965 2.0225-0.38965 1.5214 0 2.6533 0.38965 3.3955 1.1689 0.7421 0.77929 1.1132 1.973 1.1132 3.581 0 0.70508-0.0618 1.8431-0.1855 3.4141-0.1237 1.5586-0.3031 3.2347-0.5381 5.0283-0.235 1.7813-0.5072 3.3708-0.8164 4.7686 0 0.0742 0.0433 0.1422 0.1299 0.2041 0.0866 0.0618 0.1793 0.0928 0.2783 0.0928 0.1113 0 0.1856-0.0433 0.2227-0.1299 0.4948-1.9668 0.9895-3.612 1.4843-4.9356 0.4948-1.3235 1.2432-2.4987 2.2452-3.5254 1.0019-1.0267 2.3007-1.54 3.8964-1.54 1.9792 0 3.4017 0.60612 4.2676 1.8184 0.8659 1.1998 1.2988 2.7151 1.2988 4.5459 0 1.6328-0.1917 3.2099-0.5751 4.7314-0.3835 1.5091-0.8598 3.0863-1.4288 4.7314 0.0248-0.0618-0.0618 0.1794-0.2597 0.7237l0.0371 0.0371 2.7461-1.1504c0.9648 0.8288 1.5276 1.9297 1.6885 3.3027 0 0.0866-0.2784 0.4453-0.835 1.0762-0.5566 0.6185-1.2927 1.1999-2.208 1.7441-0.903 0.5319-1.9421 0.7979-3.1172 0.7979s-2.1338-0.3154-2.876-0.9463-1.1133-1.707-1.1133-3.2285c0-1.2123 0.0495-2.8327 0.1485-4.8613 0.0989-2.0287 0.1979-3.6615 0.2969-4.8985-0.3217-0.3463-0.7175-0.5319-1.1875-0.5566-0.433 0.5566-1.07 1.6699-1.9112 3.3398-0.8411 1.6699-1.4349 2.9193-1.7812 3.7481-0.0248 0.1732-0.0371 0.3401-0.0371 0.501 0 0.6184 0.0927 1.4534 0.2783 2.5048 0.1855 1.0391 0.4144 2.0101 0.6865 2.9131-0.2227 0.4206-0.6803 0.7731-1.373 1.0576-0.6928 0.2845-1.5463 0.4268-2.5606 0.4268-0.9154 0-1.6514-0.0742-2.208-0.2227-0.5443-0.1484-0.9277-0.303-1.1504-0.4638-0.2226-0.1732-0.334-0.2784-0.334-0.3155-0.0123-0.1113-0.0433-0.402-0.0927-0.872-0.0495-0.4825-0.099-1.1504-0.1485-2.0039-0.0495-0.8659-0.0742-1.8493-0.0742-2.9502l-0.0186-5.6035zm24.511 1.8183c0-2.0163 0.0309-3.8532 0.0928-5.5107l-2.0225-0.3526c-0.1608-0.6185-0.2721-1.1627-0.334-1.6328-0.0618-0.47-0.0928-0.971-0.0928-1.5029l0.0371-0.3711c0.0372-0.1732 0.0557-0.3154 0.0557-0.4268l2.6904-0.5937c0.0619-0.76694 0.2041-1.6328 0.4268-2.5977 0.2227-0.96484 0.4577-1.6761 0.7051-2.1338 0.3958-0.29687 0.872-0.51953 1.4287-0.66797 0.5566-0.14843 1.1566-0.22265 1.8002-0.22265 0.544 0 1.07 0.05566 1.577 0.16699 0.519 0.09896 0.971 0.23503 1.354 0.4082 0.037 0.42058 0.056 0.903 0.056 1.4473 0 0.89062-0.043 1.8988-0.13 3.0244l3.266-0.59375c0.457 0.79167 0.686 1.6514 0.686 2.5791 0 0.6433-0.08 1.2247-0.241 1.7442-0.148 0.5195-0.359 1.1071-0.631 1.7627-0.816 0.136-1.936 0.2226-3.358 0.2597-0.173 2.0163-0.557 4.9789-1.151 8.8877l-0.092 0.6309 0.037 0.0371 4.36-1.3545c0.903 0.7546 1.453 1.9173 1.651 3.4883 0 0.0866-0.402 0.4948-1.206 1.2246-0.791 0.7175-1.787 1.3854-2.987 2.0039-1.2 0.6061-2.505 0.9092-3.915 0.9092-2.4616 0-3.7728-1.5029-3.9336-4.5088-0.0866-1.5215-0.1299-3.5563-0.1299-6.1045zm14.232-0.9834c0-4.5768 0.117-8.8011 0.352-12.673l-2.096-0.37109c-0.297-1.138-0.446-2.3626-0.446-3.6738 0.186-0.23503 0.532-0.52572 1.04-0.87207 0.507-0.34635 1.094-0.64941 1.762-0.90918 0.681-0.25977 1.355-0.38965 2.023-0.38965 1.521 0 2.653 0.38965 3.395 1.1689 0.742 0.77929 1.113 1.973 1.113 3.581 0 0.95248-0.086 2.4245-0.259 4.4161-0.161 1.9791-0.396 3.8903-0.705 5.7334l-0.52 3.1543 0.594 0.2041 0.631-2.4493c0.593-2.2884 1.49-4.1377 2.69-5.5478 1.212-1.4225 2.728-2.1338 4.546-2.1338 1.361 0 2.468 0.29687 3.321 0.89062 0.866 0.58138 1.491 1.3545 1.874 2.3194 0.384 0.9524 0.576 2.0039 0.576 3.1543 0 1.5585-0.149 3.3089-0.446 5.2509-0.297 1.9297-0.692 3.7357-1.187 5.418-0.483 1.6452-1.287 2.944-2.412 3.8965-1.114 0.9525-2.505 1.4287-4.175 1.4287-0.656 0-1.497-0.1237-2.524-0.3711-1.026-0.2474-2.164-0.6494-3.414-1.2061-0.185 0.3093-0.396 0.6123-0.631 0.9092-0.222 0.2969-0.42 0.5196-0.593 0.668-0.916 0-1.683-0.0742-2.301-0.2227-0.619-0.1484-1.082-0.303-1.392-0.4638-0.309-0.1732-0.464-0.2784-0.464-0.3155-0.235-2.5481-0.352-6.0797-0.352-10.595zm11.318 6.6983c0.149 0 0.241-0.0124 0.279-0.0372 0.445-1.6699 0.668-4.1995 0.668-7.5888 0-0.5814-0.031-1.0515-0.093-1.4102-0.285-0.3587-0.693-0.5381-1.225-0.5381-0.173 0.1485-0.767 1.1257-1.781 2.9317-1.014 1.7936-1.763 3.1728-2.245 4.1377v0.8906c0.68 0.4701 1.466 0.8597 2.356 1.1689 0.891 0.2969 1.571 0.4454 2.041 0.4454zm10.781-6.4385c0-2.239 0.358-4.181 1.076-5.8262 0.717-1.6452 1.818-2.9193 3.302-3.8223 1.485-0.91532 3.346-1.373 5.585-1.373 2.474 0 4.416 0.46386 5.827 1.3916 1.41 0.9154 2.393 2.1895 2.95 3.8223 0.569 1.6328 0.853 3.6305 0.853 5.9931 0 2.14-0.377 4.0511-1.132 5.7334-0.742 1.6699-1.867 2.9935-3.376 3.9707-1.497 0.9649-3.334 1.4473-5.511 1.4473-3.365 0-5.802-1.0329-7.311-3.0986-1.509-2.0782-2.263-4.8243-2.263-8.2383zm10.335 5.9004c0.63 0 1.014-0.0495 1.15-0.1485 0.284-0.4948 0.501-1.1937 0.649-2.0966 0.149-0.903 0.223-1.8803 0.223-2.9317 0-0.9648-0.062-1.8678-0.186-2.709-0.123-0.8535-0.296-1.5215-0.519-2.0039-0.136-0.1608-0.408-0.2783-0.816-0.3525-0.409-0.0866-0.854-0.1299-1.336-0.1299-0.631 0-1.064 0.068-1.299 0.2041-0.619 1.0638-0.928 2.542-0.928 4.4346 0 0.8906 0.068 1.7998 0.204 2.7275s0.309 1.7689 0.52 2.5234c0.148 0.1609 0.451 0.2846 0.909 0.3711 0.457 0.0743 0.934 0.1114 1.429 0.1114zm11.745-5.9004c0-2.239 0.358-4.181 1.076-5.8262 0.717-1.6452 1.818-2.9193 3.303-3.8223 1.484-0.91532 3.346-1.373 5.585-1.373 2.473 0 4.416 0.46386 5.826 1.3916 1.41 0.9154 2.393 2.1895 2.95 3.8223 0.569 1.6328 0.853 3.6305 0.853 5.9931 0 2.14-0.377 4.0511-1.131 5.7334-0.743 1.6699-1.868 2.9935-3.377 3.9707-1.497 0.9649-3.334 1.4473-5.511 1.4473-3.365 0-5.802-1.0329-7.311-3.0986-1.509-2.0782-2.263-4.8243-2.263-8.2383zm10.335 5.9004c0.63 0 1.014-0.0495 1.15-0.1485 0.284-0.4948 0.501-1.1937 0.649-2.0966 0.149-0.903 0.223-1.8803 0.223-2.9317 0-0.9648-0.062-1.8678-0.185-2.709-0.124-0.8535-0.297-1.5215-0.52-2.0039-0.136-0.1608-0.408-0.2783-0.816-0.3525-0.409-0.0866-0.854-0.1299-1.336-0.1299-0.631 0-1.064 0.068-1.299 0.2041-0.619 1.0638-0.928 2.542-0.928 4.4346 0 0.8906 0.068 1.7998 0.204 2.7275s0.309 1.7689 0.52 2.5234c0.148 0.1609 0.451 0.2846 0.909 0.3711 0.458 0.0743 0.934 0.1114 1.429 0.1114zm12.821-6.9209c0-5.7891 0.111-9.7598 0.334-11.912l-2.097-0.37109c-0.297-1.138-0.445-2.3626-0.445-3.6738 0.185-0.23503 0.532-0.52572 1.039-0.87207s1.095-0.64941 1.763-0.90918c0.68-0.25977 1.354-0.38965 2.022-0.38965 1.658 0 2.944 0.35873 3.859 1.0762 0.928 0.71745 1.392 1.9421 1.392 3.6738 0 0.86589-0.062 2.1956-0.185 3.9893-0.124 1.7812-0.353 3.946-0.687 6.4941-0.334 2.5482-0.779 5.2077-1.336 7.9786l0.315 0.1855c0.978-1.3483 1.918-2.8327 2.821-4.4531 0.903-1.6328 1.62-3.1481 2.152-4.5459l-1.596-0.3897c-0.148-0.8411-0.222-1.8369-0.222-2.9873v-0.6679c0.47-0.5938 1.113-1.1133 1.929-1.5586 0.829-0.44531 1.856-0.66796 3.081-0.66796 0.878 0 1.639 0.16699 2.282 0.50097 0.643 0.32162 1.138 0.77313 1.484 1.3545 0.347 0.5813 0.52 1.2493 0.52 2.0039 0 0.569-0.087 1.1071-0.26 1.6142-0.173 0.4948-0.433 1.0205-0.779 1.5772-0.891 1.4101-2.443 3.414-4.658 6.0117 0.743 1.0391 1.466 1.9421 2.171 2.709 0.272-0.1361 0.526-0.3154 0.761-0.5381 0.247-0.2227 0.563-0.5443 0.946-0.9649l0.409-0.4267 2.282 1.7256c-0.087 2.2018-0.563 3.8841-1.429 5.0469-0.853 1.1503-1.985 1.7255-3.395 1.7255-1.547 0-2.709-0.47-3.489-1.4101-0.779-0.9401-1.348-2.2699-1.707-3.9893-1.36 1.472-2.56 2.709-3.599 3.711-1.027 0.9895-1.701 1.5586-2.023 1.707-0.68 0-1.33-0.0804-1.948-0.2412-0.619-0.1608-1.076-0.4144-1.373-0.7608-0.136-1.7565-0.229-3.4944-0.278-5.2138-0.038-1.7318-0.056-3.779-0.056-6.1416z" />
</svg>
