<svg width="48" height="48" viewBox="0 0 48 48" fill="none" xmlns="http://www.w3.org/2000/svg">
<path d="M35.5 29.5781H12.5C12.5 29.5781 6.00003 30.0782 6 24.0782C5.99997 17.5017 12.5 19.5782 12.5 19.5782C12.5 19.5782 10.25 16.0781 14 13.5781C17.75 11.0781 20.5 16.0782 20.5 16.0782C20.5 16.0782 22.7306 10.592 27 10.0781C31.2694 9.56426 34.9132 11.6631 35.5 14.0781C36.1422 16.7209 35.5 20.0781 35.5 20.0781C35.5 20.0781 42.5 18.0781 42 25.0781C41.6429 30.0781 35.5 29.5781 35.5 29.5781Z" fill="#DDE9F0" stroke="#2B518B" stroke-width="2"/>
<path d="M26 38L26.8077 36.5M33 25L27.3462 35.5" stroke="#2B518B" stroke-width="2"/>
<path d="M19 38.5L19.7759 37L20.2931 36M26.5 24C24.8159 27.256 21 34.6333 21 34.6333" stroke="#2B518B" stroke-width="2"/>
<path d="M20 25L15.6364 33M14 36L14.8182 34.5" stroke="#2B518B" stroke-width="2"/>
</svg>
