<svg width="22" height="26" viewBox="0 0 22 26" fill="none" xmlns="http://www.w3.org/2000/svg">
<path d="M18.4583 6.62242H15.868L15.8687 2.63645C15.8687 1.3161 14.7073 0.244873 13.2757 0.244873H8.08983C6.65831 0.244873 5.49688 1.3161 5.49688 2.63645L5.49352 6.62242H2.90057C1.46904 6.62242 0.307617 7.69365 0.307617 9.01401V21.7691C0.307617 23.0895 1.46904 24.1607 2.90057 24.1607H3.76758L3.76488 24.9579C3.76488 25.4013 4.14842 25.7551 4.6292 25.7551H6.35783C6.83861 25.7551 7.22215 25.4013 7.22215 24.9579L7.22755 24.1607H14.1421L14.1367 24.9579C14.1367 25.4001 14.5216 25.7551 15.001 25.7551H16.7296C17.2091 25.7551 17.5939 25.4001 17.5939 24.9579L17.5966 24.1607H18.4583C19.8898 24.1607 21.0512 23.0895 21.0512 21.7691V9.01401C21.0512 7.69365 19.8898 6.62242 18.4583 6.62242ZM8.09187 2.63645H13.2778V6.62242H8.09187V2.63645ZM16.7296 19.3775H4.6292C4.15383 19.3775 3.76488 19.0188 3.76488 18.5803C3.76488 18.1419 4.15383 17.7831 4.6292 17.7831H16.7296C17.2051 17.7831 17.5939 18.1418 17.5939 18.5803C17.5939 19.0188 17.205 19.3775 16.7296 19.3775ZM16.7296 13H4.6292C4.15383 13 3.76488 12.6412 3.76488 12.2028C3.76488 11.7643 4.15383 11.4056 4.6292 11.4056H16.7296C17.205 11.4056 17.5939 11.7643 17.5939 12.2028C17.5939 12.6412 17.205 13 16.7296 13Z" fill="#2B518B"/>
</svg>
